<svg width="40" height="40" viewBox="0 0 40 40" fill="none" xmlns="http://www.w3.org/2000/svg">
<g clip-path="url(#clip0_506_79)">
<g clip-path="url(#clip1_506_79)">
<path fill-rule="evenodd" clip-rule="evenodd" d="M8.88889 15.5556C7.6616 15.5556 6.66667 16.5505 6.66667 17.7778V31.1111C6.66667 32.3384 7.66159 33.3333 8.88889 33.3333H31.1111C32.3384 33.3333 33.3333 32.3384 33.3333 31.1111V17.7778C33.3333 16.5505 32.3384 15.5556 31.1111 15.5556H8.88889ZM17.2222 21.6669C17.2222 20.8137 18.1439 20.2789 18.8846 20.7021L23.3118 23.2319C24.0582 23.6584 24.0582 24.7348 23.3118 25.1613L18.8846 27.6912C18.1439 28.1144 17.2222 27.5796 17.2222 26.7264V21.6669Z" fill="white"/>
<path d="M31.1111 11.1111H8.8889C8.27525 11.1111 7.77779 11.6086 7.77779 12.2222C7.77779 12.8359 8.27525 13.3333 8.8889 13.3333H31.1111C31.7248 13.3333 32.2222 12.8359 32.2222 12.2222C32.2222 11.6086 31.7248 11.1111 31.1111 11.1111Z" fill="white"/>
<path d="M30 6.66667H10C9.38636 6.66667 8.8889 7.16413 8.8889 7.77778C8.8889 8.39143 9.38636 8.88889 10 8.88889H30C30.6137 8.88889 31.1111 8.39143 31.1111 7.77778C31.1111 7.16413 30.6137 6.66667 30 6.66667Z" fill="white"/>
</g>
</g>
<defs>
<clipPath id="clip0_506_79">
<rect width="40" height="40" fill="white"/>
</clipPath>
<clipPath id="clip1_506_79">
<rect width="26.6667" height="26.6667" fill="white" transform="translate(6.66667 6.66667)"/>
</clipPath>
</defs>
</svg>
