<svg width="40" height="40" viewBox="0 0 40 40" fill="none" xmlns="http://www.w3.org/2000/svg">
    <path d="M20.8564 18.2679C22.1898 19.0377 22.1898 20.9622 20.8564 21.732L13 26.2679C11.6667 27.0377 10 26.0754 10 24.5358V15.464C10 13.9244 11.6667 12.9622 13 13.732L20.8564 18.2679Z"
          fill="white"/>
    <path d="M25.25 13.4999C25.6642 13.4999 26 13.8357 26 14.2499L26 25.7499C26 26.1642 25.6642 26.4999 25.25 26.4999C24.8358 26.4999 24.5 26.1642 24.5 25.7499L24.5 14.2499C24.5 13.8357 24.8358 13.4999 25.25 13.4999Z"
          fill="white"/>
    <path d="M30 14.2499C30 13.8357 29.6642 13.4999 29.25 13.4999C28.8358 13.4999 28.5 13.8357 28.5 14.2499V25.7499C28.5 26.1642 28.8358 26.4999 29.25 26.4999C29.6642 26.4999 30 26.1642 30 25.7499V14.2499Z"
          fill="white"/>
</svg>
