<svg width="24" height="24" viewBox="0 0 24 24" fill="none" xmlns="http://www.w3.org/2000/svg">
<path d="M12.8564 10.2679C14.1898 11.0377 14.1898 12.9622 12.8564 13.732L5.00004 18.2679C3.66671 19.0377 2.00004 18.0754 2.00004 16.5358V7.46404C2.00004 5.92444 3.66671 4.96219 5.00004 5.73199L12.8564 10.2679Z" fill="white"/>
<path d="M17.25 5.49994C17.6642 5.49994 18 5.83573 18 6.24994L18 17.7499C18 18.1642 17.6642 18.4999 17.25 18.4999C16.8358 18.4999 16.5 18.1642 16.5 17.7499L16.5 6.24994C16.5 5.83573 16.8358 5.49994 17.25 5.49994Z" fill="white"/>
<path d="M22 6.24994C22 5.83573 21.6642 5.49994 21.25 5.49994C20.8358 5.49994 20.5 5.83573 20.5 6.24994V17.7499C20.5 18.1642 20.8358 18.4999 21.25 18.4999C21.6642 18.4999 22 18.1642 22 17.7499V6.24994Z" fill="white"/>
</svg>
